<svg xmlns="http://www.w3.org/2000/svg" width="158" height="27" fill="none"><mask id="a" maskUnits="userSpaceOnUse" x="-1" y="0" width="159" height="27" fill="#000"><path fill="#fff" d="M-1 0h159v27H-1z"/><path d="M6.912 2A1.944 1.944 0 018.83 4.263L5.863 22.135a1.944 1.944 0 11-3.836-.636L4.994 3.626A1.944 1.944 0 016.912 2zm6.425 12.198l-1.31 7.971a1.9 1.9 0 11-3.75-.62l2.132-12.797a1.57 1.57 0 011.548-1.312h.854a1 1 0 01.923 1.387l-.332.793a.428.428 0 00.396.594.447.447 0 00.378-.217 5.71 5.71 0 012.02-1.962c.92-.538 1.994-.807 3.22-.807 1.111 0 2.046.24 2.804.722.758.475 1.297 1.173 1.615 2.094.32.913.369 2.022.15 3.326l-1.478 8.807a1.899 1.899 0 01-3.745-.625l1.259-7.587c.184-1.084.046-1.934-.415-2.55-.453-.624-1.183-.936-2.189-.936a3.94 3.94 0 00-1.86.447 3.944 3.944 0 00-1.434 1.264c-.382.553-.644 1.222-.786 2.008zm20.11-6.758a1.488 1.488 0 010 2.976h-6.361a1.488 1.488 0 110-2.976h6.361zm-4.932-2.323a1.896 1.896 0 113.74.62l-2.182 13.115c-.078.518-.064.914.043 1.19.113.27.294.454.542.553.255.1.541.149.86.149.234 0 .454-.018.659-.053a.431.431 0 01.517.401l.087 1.537c.032.571-.332 1.087-.89 1.207a7.6 7.6 0 01-1.403.149c-.978.02-1.828-.128-2.55-.447-.716-.326-1.24-.825-1.573-1.498-.326-.68-.4-1.53-.223-2.55l2.373-14.373zm7.63 18.645a1.896 1.896 0 01-1.87-2.208L36.37 8.976a1.838 1.838 0 011.813-1.536h.794c.721 0 1.27.649 1.15 1.36l-.21 1.251a.094.094 0 00.177.056c.445-.916 1.067-1.624 1.866-2.125a4.862 4.862 0 012.635-.775c.22 0 .457.01.712.032.369.02.61.364.549.728l-.356 2.114c-.067.403-.489.671-.894.622a6.986 6.986 0 00-1.01-.075 4.27 4.27 0 00-1.955.457 4.337 4.337 0 00-1.509 1.243 4.1 4.1 0 00-.796 1.838l-1.322 8.008a1.896 1.896 0 01-1.87 1.588zm12.221.328c-1.034 0-1.934-.183-2.699-.552-.765-.375-1.328-.928-1.69-1.657-.353-.73-.442-1.63-.265-2.7.156-.92.453-1.682.893-2.284a5.153 5.153 0 011.636-1.445 8.19 8.19 0 012.125-.829 18.638 18.638 0 012.36-.403c.977-.1 1.767-.192 2.369-.277.609-.085 1.066-.212 1.37-.382.296-.172.478-.43.547-.775a.336.336 0 00.006-.066c0-.02.002-.04.005-.06.12-.787-.01-1.396-.388-1.83-.382-.44-1.02-.659-1.912-.659-.935 0-1.722.206-2.36.617a4.757 4.757 0 00-.635.485c-.546.5-1.247.898-1.98.791-1.136-.166-1.802-1.394-1.034-2.248.181-.201.374-.391.579-.57a7.598 7.598 0 012.646-1.508 9.988 9.988 0 013.22-.51c.779 0 1.54.092 2.284.276.75.184 1.413.489 1.987.914.58.418 1.006.988 1.275 1.71.276.723.322 1.626.138 2.71l-1.564 9.403a1.82 1.82 0 01-1.795 1.52h-1.018a.96.96 0 01-.946-1.12l.176-1.035a.074.074 0 00-.135-.054 5.89 5.89 0 01-1.168 1.243 6.03 6.03 0 01-1.742.945c-.673.234-1.435.35-2.285.35zm1.456-2.825c.772 0 1.466-.153 2.083-.457a4.418 4.418 0 001.52-1.233c.396-.51.644-1.066.743-1.668l.201-1.216c.044-.263-.284-.505-.541-.431a9.44 9.44 0 01-.999.223 30.9 30.9 0 01-1.073.17l-.914.127a7.707 7.707 0 00-1.615.383 3.258 3.258 0 00-1.2.744c-.313.311-.507.715-.585 1.211-.114.701.053 1.236.5 1.605.446.36 1.072.542 1.88.542zm14.717-7.067l-1.31 7.971a1.9 1.9 0 11-3.75-.62L61.627 8.65c.116-.698.72-1.21 1.428-1.21h.873a.934.934 0 01.817 1.388l-.308.554c-.206.37.06.825.482.829a.59.59 0 00.5-.281 5.712 5.712 0 011.977-1.895c.921-.538 1.994-.807 3.22-.807 1.112 0 2.047.24 2.805.722.758.475 1.297 1.173 1.615 2.094.32.913.369 2.022.15 3.326l-1.478 8.807a1.899 1.899 0 01-3.745-.625l1.259-7.587c.184-1.084.046-1.934-.415-2.55-.453-.624-1.183-.936-2.189-.936a3.94 3.94 0 00-1.86.447 3.944 3.944 0 00-1.434 1.264c-.382.553-.644 1.222-.786 2.008zM82.72 24.08c-1.636 0-2.99-.34-4.059-1.02-1.07-.687-1.82-1.657-2.253-2.911-.425-1.261-.495-2.745-.212-4.452.276-1.68.84-3.153 1.69-4.42.85-1.276 1.912-2.268 3.187-2.976 1.282-.715 2.7-1.073 4.25-1.073 1.006 0 1.93.163 2.774.489a5.21 5.21 0 012.136 1.487c.58.673.98 1.53 1.2 2.572.22 1.034.21 2.267-.032 3.697a1.39 1.39 0 01-1.373 1.18h-6.92a1.296 1.296 0 110-2.593h2.836c1.152 0 2.266-.885 1.866-1.966a2.738 2.738 0 00-1.063-1.37c-.496-.333-1.115-.5-1.86-.5-.757 0-1.466.195-2.124.585a5.412 5.412 0 00-1.647 1.487c-.447.61-.73 1.25-.85 1.924l-.436 2.486c-.156 1.02-.12 1.852.106 2.497.227.645.624 1.12 1.19 1.424.567.305 1.282.457 2.147.457a5.08 5.08 0 001.572-.234 3.844 3.844 0 001.53-.922c.512-.506 1.18-.895 1.894-.812 1.172.134 1.883 1.37 1.105 2.257a7.245 7.245 0 01-.48.497c-.751.701-1.65 1.247-2.7 1.636-1.04.383-2.199.574-3.474.574zm17.9-16.64a1.488 1.488 0 010 2.976h-6.361a1.488 1.488 0 010-2.976h6.361zm-4.932-2.323a1.896 1.896 0 113.74.62l-2.182 13.115c-.078.518-.064.914.043 1.19.113.27.293.454.541.553.255.1.542.149.861.149.234 0 .453-.018.659-.053a.431.431 0 01.517.401l.087 1.537c.032.571-.332 1.087-.891 1.207a7.59 7.59 0 01-1.403.149c-.977.02-1.827-.128-2.55-.447-.715-.326-1.24-.825-1.572-1.498-.326-.68-.4-1.53-.224-2.55l2.374-14.373zm10.046 18.973c-1.035 0-1.934-.183-2.699-.552-.765-.375-1.328-.928-1.69-1.657-.354-.73-.442-1.63-.265-2.7.155-.92.453-1.682.892-2.284a5.149 5.149 0 011.637-1.445 8.179 8.179 0 012.125-.829 18.615 18.615 0 012.359-.403c.977-.1 1.767-.192 2.369-.277.609-.085 1.066-.212 1.371-.382.295-.172.477-.43.546-.775a.296.296 0 00.006-.066c0-.02.002-.04.005-.06.12-.787-.009-1.396-.387-1.83-.383-.44-1.02-.659-1.913-.659-.935 0-1.721.206-2.359.617a4.775 4.775 0 00-.635.485c-.546.5-1.248.898-1.98.791-1.137-.166-1.803-1.394-1.034-2.248.181-.201.374-.391.579-.57a7.6 7.6 0 012.645-1.508 9.989 9.989 0 013.22-.51 9.47 9.47 0 012.284.276 5.49 5.49 0 011.987.914c.581.418 1.006.988 1.276 1.71.276.723.322 1.626.138 2.71l-1.564 9.403a1.82 1.82 0 01-1.795 1.52h-1.019a.96.96 0 01-.946-1.12l.177-1.035a.075.075 0 00-.073-.087.075.075 0 00-.062.033 5.916 5.916 0 01-1.168 1.243c-.489.39-1.07.704-1.743.945-.673.234-1.434.35-2.284.35zm1.455-2.825c.773 0 1.467-.153 2.083-.457a4.426 4.426 0 001.52-1.233c.396-.51.644-1.066.743-1.668l.202-1.216c.044-.263-.285-.505-.542-.431a9.62 9.62 0 01-.998.223c-.362.064-.719.12-1.074.17l-.913.127a7.717 7.717 0 00-1.616.383 3.254 3.254 0 00-1.2.744c-.312.311-.507.715-.585 1.211-.113.701.053 1.236.5 1.605.446.36 1.073.542 1.88.542zm11.648 2.497a1.865 1.865 0 01-1.84-2.171l2.988-18.003a1.9 1.9 0 013.747.62l-.957 5.817a.1.1 0 00.181.07c.252-.384.586-.79 1.001-1.22.44-.454.996-.84 1.669-1.158.673-.326 1.487-.49 2.443-.49 1.261 0 2.345.323 3.252.968.907.637 1.555 1.583 1.944 2.837.39 1.247.436 2.777.139 4.59-.298 1.792-.843 3.316-1.637 4.57-.793 1.253-1.753 2.21-2.879 2.868a7.041 7.041 0 01-3.613.988c-.935 0-1.686-.155-2.253-.467-.559-.312-.988-.687-1.285-1.126a5.661 5.661 0 01-.611-1.16.16.16 0 00-.15-.105.157.157 0 00-.154.13l-.191 1.156a1.535 1.535 0 01-1.515 1.286h-.279zm2.931-8.161c-.17 1.056-.173 1.98-.01 2.773.17.794.503 1.414.999 1.86.503.439 1.165.659 1.987.659.843 0 1.586-.227 2.231-.68.652-.46 1.19-1.088 1.615-1.881.425-.8.723-1.711.893-2.731.163-1.013.163-1.913 0-2.699-.156-.786-.486-1.403-.988-1.849-.496-.446-1.169-.67-2.019-.67-.829 0-1.566.217-2.211.649-.644.432-1.179 1.038-1.604 1.817-.425.78-.723 1.697-.893 2.752zM138.739 2a1.897 1.897 0 011.872 2.208l-2.983 17.967a1.897 1.897 0 01-3.743-.622l2.983-17.966A1.897 1.897 0 01138.739 2zm7.969 22.08c-1.636 0-2.989-.34-4.059-1.02-1.07-.687-1.821-1.657-2.253-2.911-.425-1.261-.496-2.745-.212-4.452.276-1.68.839-3.153 1.689-4.42.85-1.276 1.913-2.268 3.188-2.976 1.282-.715 2.699-1.073 4.25-1.073 1.006 0 1.931.163 2.774.489a5.208 5.208 0 012.135 1.487c.581.673.981 1.53 1.201 2.572.22 1.034.209 2.267-.032 3.697a1.39 1.39 0 01-1.374 1.18h-7.595a1.296 1.296 0 110-2.593h3.512c1.152 0 2.266-.885 1.866-1.966a2.741 2.741 0 00-1.063-1.37c-.496-.333-1.116-.5-1.859-.5-.758 0-1.467.195-2.126.585a5.44 5.44 0 00-1.647 1.487c-.446.61-.729 1.25-.85 1.924l-.435 2.486c-.156 1.02-.121 1.852.106 2.497.227.645.623 1.12 1.19 1.424.567.305 1.282.457 2.146.457.567 0 1.091-.078 1.573-.234a3.849 3.849 0 001.529-.922c.513-.506 1.18-.895 1.895-.812 1.172.134 1.882 1.37 1.104 2.257a6.8 6.8 0 01-.48.497c-.75.701-1.65 1.247-2.698 1.636-1.042.383-2.2.574-3.475.574z"/></mask><path d="M6.912 2A1.944 1.944 0 018.83 4.263L5.863 22.135a1.944 1.944 0 11-3.836-.636L4.994 3.626A1.944 1.944 0 016.912 2zm6.425 12.198l-1.31 7.971a1.9 1.9 0 11-3.75-.62l2.132-12.797a1.57 1.57 0 011.548-1.312h.854a1 1 0 01.923 1.387l-.332.793a.428.428 0 00.396.594.447.447 0 00.378-.217 5.71 5.71 0 012.02-1.962c.92-.538 1.994-.807 3.22-.807 1.111 0 2.046.24 2.804.722.758.475 1.297 1.173 1.615 2.094.32.913.369 2.022.15 3.326l-1.478 8.807a1.899 1.899 0 01-3.745-.625l1.259-7.587c.184-1.084.046-1.934-.415-2.55-.453-.624-1.183-.936-2.189-.936a3.94 3.94 0 00-1.86.447 3.944 3.944 0 00-1.434 1.264c-.382.553-.644 1.222-.786 2.008zm20.11-6.758a1.488 1.488 0 010 2.976h-6.361a1.488 1.488 0 110-2.976h6.361zm-4.932-2.323a1.896 1.896 0 113.74.62l-2.182 13.115c-.078.518-.064.914.043 1.19.113.27.294.454.542.553.255.1.541.149.86.149.234 0 .454-.018.659-.053a.431.431 0 01.517.401l.087 1.537c.032.571-.332 1.087-.89 1.207a7.6 7.6 0 01-1.403.149c-.978.02-1.828-.128-2.55-.447-.716-.326-1.24-.825-1.573-1.498-.326-.68-.4-1.53-.223-2.55l2.373-14.373zm7.63 18.645a1.896 1.896 0 01-1.87-2.208L36.37 8.976a1.838 1.838 0 011.813-1.536h.794c.721 0 1.27.649 1.15 1.36l-.21 1.251a.094.094 0 00.177.056c.445-.916 1.067-1.624 1.866-2.125a4.862 4.862 0 012.635-.775c.22 0 .457.01.712.032.369.02.61.364.549.728l-.356 2.114c-.067.403-.489.671-.894.622a6.986 6.986 0 00-1.01-.075 4.27 4.27 0 00-1.955.457 4.337 4.337 0 00-1.509 1.243 4.1 4.1 0 00-.796 1.838l-1.322 8.008a1.896 1.896 0 01-1.87 1.588zm12.221.328c-1.034 0-1.934-.183-2.699-.552-.765-.375-1.328-.928-1.69-1.657-.353-.73-.442-1.63-.265-2.7.156-.92.453-1.682.893-2.284a5.153 5.153 0 011.636-1.445 8.19 8.19 0 012.125-.829 18.638 18.638 0 012.36-.403c.977-.1 1.767-.192 2.369-.277.609-.085 1.066-.212 1.37-.382.296-.172.478-.43.547-.775a.336.336 0 00.006-.066c0-.02.002-.04.005-.06.12-.787-.01-1.396-.388-1.83-.382-.44-1.02-.659-1.912-.659-.935 0-1.722.206-2.36.617a4.757 4.757 0 00-.635.485c-.546.5-1.247.898-1.98.791-1.136-.166-1.802-1.394-1.034-2.248.181-.201.374-.391.579-.57a7.598 7.598 0 012.646-1.508 9.988 9.988 0 013.22-.51c.779 0 1.54.092 2.284.276.75.184 1.413.489 1.987.914.58.418 1.006.988 1.275 1.71.276.723.322 1.626.138 2.71l-1.564 9.403a1.82 1.82 0 01-1.795 1.52h-1.018a.96.96 0 01-.946-1.12l.176-1.035a.074.074 0 00-.135-.054 5.89 5.89 0 01-1.168 1.243 6.03 6.03 0 01-1.742.945c-.673.234-1.435.35-2.285.35zm1.456-2.825c.772 0 1.466-.153 2.083-.457a4.418 4.418 0 001.52-1.233c.396-.51.644-1.066.743-1.668l.201-1.216c.044-.263-.284-.505-.541-.431a9.44 9.44 0 01-.999.223 30.9 30.9 0 01-1.073.17l-.914.127a7.707 7.707 0 00-1.615.383 3.258 3.258 0 00-1.2.744c-.313.311-.507.715-.585 1.211-.114.701.053 1.236.5 1.605.446.36 1.072.542 1.88.542zm14.717-7.067l-1.31 7.971a1.9 1.9 0 11-3.75-.62L61.627 8.65c.116-.698.72-1.21 1.428-1.21h.873a.934.934 0 01.817 1.388l-.308.554c-.206.37.06.825.482.829a.59.59 0 00.5-.281 5.712 5.712 0 011.977-1.895c.921-.538 1.994-.807 3.22-.807 1.112 0 2.047.24 2.805.722.758.475 1.297 1.173 1.615 2.094.32.913.369 2.022.15 3.326l-1.478 8.807a1.899 1.899 0 01-3.745-.625l1.259-7.587c.184-1.084.046-1.934-.415-2.55-.453-.624-1.183-.936-2.189-.936a3.94 3.94 0 00-1.86.447 3.944 3.944 0 00-1.434 1.264c-.382.553-.644 1.222-.786 2.008zM82.72 24.08c-1.636 0-2.99-.34-4.059-1.02-1.07-.687-1.82-1.657-2.253-2.911-.425-1.261-.495-2.745-.212-4.452.276-1.68.84-3.153 1.69-4.42.85-1.276 1.912-2.268 3.187-2.976 1.282-.715 2.7-1.073 4.25-1.073 1.006 0 1.93.163 2.774.489a5.21 5.21 0 012.136 1.487c.58.673.98 1.53 1.2 2.572.22 1.034.21 2.267-.032 3.697a1.39 1.39 0 01-1.373 1.18h-6.92a1.296 1.296 0 110-2.593h2.836c1.152 0 2.266-.885 1.866-1.966a2.738 2.738 0 00-1.063-1.37c-.496-.333-1.115-.5-1.86-.5-.757 0-1.466.195-2.124.585a5.412 5.412 0 00-1.647 1.487c-.447.61-.73 1.25-.85 1.924l-.436 2.486c-.156 1.02-.12 1.852.106 2.497.227.645.624 1.12 1.19 1.424.567.305 1.282.457 2.147.457a5.08 5.08 0 001.572-.234 3.844 3.844 0 001.53-.922c.512-.506 1.18-.895 1.894-.812 1.172.134 1.883 1.37 1.105 2.257a7.245 7.245 0 01-.48.497c-.751.701-1.65 1.247-2.7 1.636-1.04.383-2.199.574-3.474.574zm17.9-16.64a1.488 1.488 0 010 2.976h-6.361a1.488 1.488 0 010-2.976h6.361zm-4.932-2.323a1.896 1.896 0 113.74.62l-2.182 13.115c-.078.518-.064.914.043 1.19.113.27.293.454.541.553.255.1.542.149.861.149.234 0 .453-.018.659-.053a.431.431 0 01.517.401l.087 1.537c.032.571-.332 1.087-.891 1.207a7.59 7.59 0 01-1.403.149c-.977.02-1.827-.128-2.55-.447-.715-.326-1.24-.825-1.572-1.498-.326-.68-.4-1.53-.224-2.55l2.374-14.373zm10.046 18.973c-1.035 0-1.934-.183-2.699-.552-.765-.375-1.328-.928-1.69-1.657-.354-.73-.442-1.63-.265-2.7.155-.92.453-1.682.892-2.284a5.149 5.149 0 011.637-1.445 8.179 8.179 0 012.125-.829 18.615 18.615 0 012.359-.403c.977-.1 1.767-.192 2.369-.277.609-.085 1.066-.212 1.371-.382.295-.172.477-.43.546-.775a.296.296 0 00.006-.066c0-.02.002-.04.005-.06.12-.787-.009-1.396-.387-1.83-.383-.44-1.02-.659-1.913-.659-.935 0-1.721.206-2.359.617a4.775 4.775 0 00-.635.485c-.546.5-1.248.898-1.98.791-1.137-.166-1.803-1.394-1.034-2.248.181-.201.374-.391.579-.57a7.6 7.6 0 012.645-1.508 9.989 9.989 0 013.22-.51 9.47 9.47 0 012.284.276 5.49 5.49 0 011.987.914c.581.418 1.006.988 1.276 1.71.276.723.322 1.626.138 2.71l-1.564 9.403a1.82 1.82 0 01-1.795 1.52h-1.019a.96.96 0 01-.946-1.12l.177-1.035a.075.075 0 00-.073-.087.075.075 0 00-.062.033 5.916 5.916 0 01-1.168 1.243c-.489.39-1.07.704-1.743.945-.673.234-1.434.35-2.284.35zm1.455-2.825c.773 0 1.467-.153 2.083-.457a4.426 4.426 0 001.52-1.233c.396-.51.644-1.066.743-1.668l.202-1.216c.044-.263-.285-.505-.542-.431a9.62 9.62 0 01-.998.223c-.362.064-.719.12-1.074.17l-.913.127a7.717 7.717 0 00-1.616.383 3.254 3.254 0 00-1.2.744c-.312.311-.507.715-.585 1.211-.113.701.053 1.236.5 1.605.446.36 1.073.542 1.88.542zm11.648 2.497a1.865 1.865 0 01-1.84-2.171l2.988-18.003a1.9 1.9 0 013.747.62l-.957 5.817a.1.1 0 00.181.07c.252-.384.586-.79 1.001-1.22.44-.454.996-.84 1.669-1.158.673-.326 1.487-.49 2.443-.49 1.261 0 2.345.323 3.252.968.907.637 1.555 1.583 1.944 2.837.39 1.247.436 2.777.139 4.59-.298 1.792-.843 3.316-1.637 4.57-.793 1.253-1.753 2.21-2.879 2.868a7.041 7.041 0 01-3.613.988c-.935 0-1.686-.155-2.253-.467-.559-.312-.988-.687-1.285-1.126a5.661 5.661 0 01-.611-1.16.16.16 0 00-.15-.105.157.157 0 00-.154.13l-.191 1.156a1.535 1.535 0 01-1.515 1.286h-.279zm2.931-8.161c-.17 1.056-.173 1.98-.01 2.773.17.794.503 1.414.999 1.86.503.439 1.165.659 1.987.659.843 0 1.586-.227 2.231-.68.652-.46 1.19-1.088 1.615-1.881.425-.8.723-1.711.893-2.731.163-1.013.163-1.913 0-2.699-.156-.786-.486-1.403-.988-1.849-.496-.446-1.169-.67-2.019-.67-.829 0-1.566.217-2.211.649-.644.432-1.179 1.038-1.604 1.817-.425.78-.723 1.697-.893 2.752zM138.739 2a1.897 1.897 0 011.872 2.208l-2.983 17.967a1.897 1.897 0 01-3.743-.622l2.983-17.966A1.897 1.897 0 01138.739 2zm7.969 22.08c-1.636 0-2.989-.34-4.059-1.02-1.07-.687-1.821-1.657-2.253-2.911-.425-1.261-.496-2.745-.212-4.452.276-1.68.839-3.153 1.689-4.42.85-1.276 1.913-2.268 3.188-2.976 1.282-.715 2.699-1.073 4.25-1.073 1.006 0 1.931.163 2.774.489a5.208 5.208 0 012.135 1.487c.581.673.981 1.53 1.201 2.572.22 1.034.209 2.267-.032 3.697a1.39 1.39 0 01-1.374 1.18h-7.595a1.296 1.296 0 110-2.593h3.512c1.152 0 2.266-.885 1.866-1.966a2.741 2.741 0 00-1.063-1.37c-.496-.333-1.116-.5-1.859-.5-.758 0-1.467.195-2.126.585a5.44 5.44 0 00-1.647 1.487c-.446.61-.729 1.25-.85 1.924l-.435 2.486c-.156 1.02-.121 1.852.106 2.497.227.645.623 1.12 1.19 1.424.567.305 1.282.457 2.146.457.567 0 1.091-.078 1.573-.234a3.849 3.849 0 001.529-.922c.513-.506 1.18-.895 1.895-.812 1.172.134 1.882 1.37 1.104 2.257a6.8 6.8 0 01-.48.497c-.75.701-1.65 1.247-2.698 1.636-1.042.383-2.2.574-3.475.574z" fill="#fff"/><path d="M6.912 2A1.944 1.944 0 018.83 4.263L5.863 22.135a1.944 1.944 0 11-3.836-.636L4.994 3.626A1.944 1.944 0 016.912 2zm6.425 12.198l-1.31 7.971a1.9 1.9 0 11-3.75-.62l2.132-12.797a1.57 1.57 0 011.548-1.312h.854a1 1 0 01.923 1.387l-.332.793a.428.428 0 00.396.594.447.447 0 00.378-.217 5.71 5.71 0 012.02-1.962c.92-.538 1.994-.807 3.22-.807 1.111 0 2.046.24 2.804.722.758.475 1.297 1.173 1.615 2.094.32.913.369 2.022.15 3.326l-1.478 8.807a1.899 1.899 0 01-3.745-.625l1.259-7.587c.184-1.084.046-1.934-.415-2.55-.453-.624-1.183-.936-2.189-.936a3.94 3.94 0 00-1.86.447 3.944 3.944 0 00-1.434 1.264c-.382.553-.644 1.222-.786 2.008zm20.11-6.758a1.488 1.488 0 010 2.976h-6.361a1.488 1.488 0 110-2.976h6.361zm-4.932-2.323a1.896 1.896 0 113.74.62l-2.182 13.115c-.078.518-.064.914.043 1.19.113.27.294.454.542.553.255.1.541.149.86.149.234 0 .454-.018.659-.053a.431.431 0 01.517.401l.087 1.537c.032.571-.332 1.087-.89 1.207a7.6 7.6 0 01-1.403.149c-.978.02-1.828-.128-2.55-.447-.716-.326-1.24-.825-1.573-1.498-.326-.68-.4-1.53-.223-2.55l2.373-14.373zm7.63 18.645a1.896 1.896 0 01-1.87-2.208L36.37 8.976a1.838 1.838 0 011.813-1.536h.794c.721 0 1.27.649 1.15 1.36l-.21 1.251a.094.094 0 00.177.056c.445-.916 1.067-1.624 1.866-2.125a4.862 4.862 0 012.635-.775c.22 0 .457.01.712.032.369.02.61.364.549.728l-.356 2.114c-.067.403-.489.671-.894.622a6.986 6.986 0 00-1.01-.075 4.27 4.27 0 00-1.955.457 4.337 4.337 0 00-1.509 1.243 4.1 4.1 0 00-.796 1.838l-1.322 8.008a1.896 1.896 0 01-1.87 1.588zm12.221.328c-1.034 0-1.934-.183-2.699-.552-.765-.375-1.328-.928-1.69-1.657-.353-.73-.442-1.63-.265-2.7.156-.92.453-1.682.893-2.284a5.153 5.153 0 011.636-1.445 8.19 8.19 0 012.125-.829 18.638 18.638 0 012.36-.403c.977-.1 1.767-.192 2.369-.277.609-.085 1.066-.212 1.37-.382.296-.172.478-.43.547-.775a.336.336 0 00.006-.066c0-.02.002-.04.005-.06.12-.787-.01-1.396-.388-1.83-.382-.44-1.02-.659-1.912-.659-.935 0-1.722.206-2.36.617a4.757 4.757 0 00-.635.485c-.546.5-1.247.898-1.98.791-1.136-.166-1.802-1.394-1.034-2.248.181-.201.374-.391.579-.57a7.598 7.598 0 012.646-1.508 9.988 9.988 0 013.22-.51c.779 0 1.54.092 2.284.276.75.184 1.413.489 1.987.914.58.418 1.006.988 1.275 1.71.276.723.322 1.626.138 2.71l-1.564 9.403a1.82 1.82 0 01-1.795 1.52h-1.018a.96.96 0 01-.946-1.12l.176-1.035a.074.074 0 00-.135-.054 5.89 5.89 0 01-1.168 1.243 6.03 6.03 0 01-1.742.945c-.673.234-1.435.35-2.285.35zm1.456-2.825c.772 0 1.466-.153 2.083-.457a4.418 4.418 0 001.52-1.233c.396-.51.644-1.066.743-1.668l.201-1.216c.044-.263-.284-.505-.541-.431a9.44 9.44 0 01-.999.223 30.9 30.9 0 01-1.073.17l-.914.127a7.707 7.707 0 00-1.615.383 3.258 3.258 0 00-1.2.744c-.313.311-.507.715-.585 1.211-.114.701.053 1.236.5 1.605.446.36 1.072.542 1.88.542zm14.717-7.067l-1.31 7.971a1.9 1.9 0 11-3.75-.62L61.627 8.65c.116-.698.72-1.21 1.428-1.21h.873a.934.934 0 01.817 1.388l-.308.554c-.206.37.06.825.482.829a.59.59 0 00.5-.281 5.712 5.712 0 011.977-1.895c.921-.538 1.994-.807 3.22-.807 1.112 0 2.047.24 2.805.722.758.475 1.297 1.173 1.615 2.094.32.913.369 2.022.15 3.326l-1.478 8.807a1.899 1.899 0 01-3.745-.625l1.259-7.587c.184-1.084.046-1.934-.415-2.55-.453-.624-1.183-.936-2.189-.936a3.94 3.94 0 00-1.86.447 3.944 3.944 0 00-1.434 1.264c-.382.553-.644 1.222-.786 2.008zM82.72 24.08c-1.636 0-2.99-.34-4.059-1.02-1.07-.687-1.82-1.657-2.253-2.911-.425-1.261-.495-2.745-.212-4.452.276-1.68.84-3.153 1.69-4.42.85-1.276 1.912-2.268 3.187-2.976 1.282-.715 2.7-1.073 4.25-1.073 1.006 0 1.93.163 2.774.489a5.21 5.21 0 012.136 1.487c.58.673.98 1.53 1.2 2.572.22 1.034.21 2.267-.032 3.697a1.39 1.39 0 01-1.373 1.18h-6.92a1.296 1.296 0 110-2.593h2.836c1.152 0 2.266-.885 1.866-1.966a2.738 2.738 0 00-1.063-1.37c-.496-.333-1.115-.5-1.86-.5-.757 0-1.466.195-2.124.585a5.412 5.412 0 00-1.647 1.487c-.447.61-.73 1.25-.85 1.924l-.436 2.486c-.156 1.02-.12 1.852.106 2.497.227.645.624 1.12 1.19 1.424.567.305 1.282.457 2.147.457a5.08 5.08 0 001.572-.234 3.844 3.844 0 001.53-.922c.512-.506 1.18-.895 1.894-.812 1.172.134 1.883 1.37 1.105 2.257a7.245 7.245 0 01-.48.497c-.751.701-1.65 1.247-2.7 1.636-1.04.383-2.199.574-3.474.574zm17.9-16.64a1.488 1.488 0 010 2.976h-6.361a1.488 1.488 0 010-2.976h6.361zm-4.932-2.323a1.896 1.896 0 113.74.62l-2.182 13.115c-.078.518-.064.914.043 1.19.113.27.293.454.541.553.255.1.542.149.861.149.234 0 .453-.018.659-.053a.431.431 0 01.517.401l.087 1.537c.032.571-.332 1.087-.891 1.207a7.59 7.59 0 01-1.403.149c-.977.02-1.827-.128-2.55-.447-.715-.326-1.24-.825-1.572-1.498-.326-.68-.4-1.53-.224-2.55l2.374-14.373zm10.046 18.973c-1.035 0-1.934-.183-2.699-.552-.765-.375-1.328-.928-1.69-1.657-.354-.73-.442-1.63-.265-2.7.155-.92.453-1.682.892-2.284a5.149 5.149 0 011.637-1.445 8.179 8.179 0 012.125-.829 18.615 18.615 0 012.359-.403c.977-.1 1.767-.192 2.369-.277.609-.085 1.066-.212 1.371-.382.295-.172.477-.43.546-.775a.296.296 0 00.006-.066c0-.02.002-.04.005-.06.12-.787-.009-1.396-.387-1.83-.383-.44-1.02-.659-1.913-.659-.935 0-1.721.206-2.359.617a4.775 4.775 0 00-.635.485c-.546.5-1.248.898-1.98.791-1.137-.166-1.803-1.394-1.034-2.248.181-.201.374-.391.579-.57a7.6 7.6 0 012.645-1.508 9.989 9.989 0 013.22-.51 9.47 9.47 0 012.284.276 5.49 5.49 0 011.987.914c.581.418 1.006.988 1.276 1.71.276.723.322 1.626.138 2.71l-1.564 9.403a1.82 1.82 0 01-1.795 1.52h-1.019a.96.96 0 01-.946-1.12l.177-1.035a.075.075 0 00-.073-.087.075.075 0 00-.062.033 5.916 5.916 0 01-1.168 1.243c-.489.39-1.07.704-1.743.945-.673.234-1.434.35-2.284.35zm1.455-2.825c.773 0 1.467-.153 2.083-.457a4.426 4.426 0 001.52-1.233c.396-.51.644-1.066.743-1.668l.202-1.216c.044-.263-.285-.505-.542-.431a9.62 9.62 0 01-.998.223c-.362.064-.719.12-1.074.17l-.913.127a7.717 7.717 0 00-1.616.383 3.254 3.254 0 00-1.2.744c-.312.311-.507.715-.585 1.211-.113.701.053 1.236.5 1.605.446.36 1.073.542 1.88.542zm11.648 2.497a1.865 1.865 0 01-1.84-2.171l2.988-18.003a1.9 1.9 0 013.747.62l-.957 5.817a.1.1 0 00.181.07c.252-.384.586-.79 1.001-1.22.44-.454.996-.84 1.669-1.158.673-.326 1.487-.49 2.443-.49 1.261 0 2.345.323 3.252.968.907.637 1.555 1.583 1.944 2.837.39 1.247.436 2.777.139 4.59-.298 1.792-.843 3.316-1.637 4.57-.793 1.253-1.753 2.21-2.879 2.868a7.041 7.041 0 01-3.613.988c-.935 0-1.686-.155-2.253-.467-.559-.312-.988-.687-1.285-1.126a5.661 5.661 0 01-.611-1.16.16.16 0 00-.15-.105.157.157 0 00-.154.13l-.191 1.156a1.535 1.535 0 01-1.515 1.286h-.279zm2.931-8.161c-.17 1.056-.173 1.98-.01 2.773.17.794.503 1.414.999 1.86.503.439 1.165.659 1.987.659.843 0 1.586-.227 2.231-.68.652-.46 1.19-1.088 1.615-1.881.425-.8.723-1.711.893-2.731.163-1.013.163-1.913 0-2.699-.156-.786-.486-1.403-.988-1.849-.496-.446-1.169-.67-2.019-.67-.829 0-1.566.217-2.211.649-.644.432-1.179 1.038-1.604 1.817-.425.78-.723 1.697-.893 2.752zM138.739 2a1.897 1.897 0 011.872 2.208l-2.983 17.967a1.897 1.897 0 01-3.743-.622l2.983-17.966A1.897 1.897 0 01138.739 2zm7.969 22.08c-1.636 0-2.989-.34-4.059-1.02-1.07-.687-1.821-1.657-2.253-2.911-.425-1.261-.496-2.745-.212-4.452.276-1.68.839-3.153 1.689-4.42.85-1.276 1.913-2.268 3.188-2.976 1.282-.715 2.699-1.073 4.25-1.073 1.006 0 1.931.163 2.774.489a5.208 5.208 0 012.135 1.487c.581.673.981 1.53 1.201 2.572.22 1.034.209 2.267-.032 3.697a1.39 1.39 0 01-1.374 1.18h-7.595a1.296 1.296 0 110-2.593h3.512c1.152 0 2.266-.885 1.866-1.966a2.741 2.741 0 00-1.063-1.37c-.496-.333-1.116-.5-1.859-.5-.758 0-1.467.195-2.126.585a5.44 5.44 0 00-1.647 1.487c-.446.61-.729 1.25-.85 1.924l-.435 2.486c-.156 1.02-.121 1.852.106 2.497.227.645.623 1.12 1.19 1.424.567.305 1.282.457 2.146.457.567 0 1.091-.078 1.573-.234a3.849 3.849 0 001.529-.922c.513-.506 1.18-.895 1.895-.812 1.172.134 1.882 1.37 1.104 2.257a6.8 6.8 0 01-.48.497c-.75.701-1.65 1.247-2.698 1.636-1.042.383-2.2.574-3.475.574z" stroke="#001533" stroke-width="4" mask="url(#a)"/></svg>